<?xml version="1.0" standalone="no"?>
<!DOCTYPE svg PUBLIC "-//W3C//DTD SVG 20010904//EN"
 "http://www.w3.org/TR/2001/REC-SVG-20010904/DTD/svg10.dtd">
<svg version="1.0" xmlns="http://www.w3.org/2000/svg"
 width="618.000000pt" height="617.000000pt" viewBox="0 0 618.000000 617.000000"
 preserveAspectRatio="xMidYMid meet">

<g transform="translate(0.000000,617.000000) scale(0.100000,-0.100000)"
fill="#000000" stroke="none">
<path d="M4930 6142 c-109 -5 -115 -10 -99 -100 11 -59 11 -59 42 -56 82 9 97
19 97 68 0 39 8 29 13 -15 4 -41 15 -62 28 -54 12 8 12 -67 -1 -99 -8 -22 -16
-26 -47 -26 -21 0 -54 -3 -74 -6 -35 -6 -36 -6 -27 -43 4 -20 17 -90 28 -156
11 -66 25 -146 32 -178 l11 -58 119 3 c114 3 119 2 116 -17 -3 -18 -13 -21
-133 -27 -241 -12 -819 -20 -924 -13 -96 7 -102 8 -87 24 15 14 59 16 399 18
210 2 409 7 442 12 64 10 -901 6 -1028 -4 -47 -4 -67 -3 -62 5 3 5 42 10 90
10 133 0 131 -2 208 195 l44 110 49 7 c27 3 102 7 167 7 110 1 117 2 117 21 0
16 -7 20 -31 20 -20 0 -28 4 -23 12 4 7 3 8 -4 4 -6 -4 -28 0 -49 9 -21 9 -62
15 -93 15 -30 -1 -84 -1 -120 -1 -36 1 -89 -2 -118 -5 -65 -8 -69 -13 -168
-219 l-74 -155 -138 0 c-75 0 -278 -3 -449 -7 l-313 -6 0 54 c0 30 4 95 9 144
5 50 11 126 13 170 l3 80 -60 1 c-58 1 -60 2 -66 30 -6 28 -6 27 -14 -13 -7
-42 -8 -42 -54 -45 l-46 -3 -5 -63 -5 -62 -55 51 c-166 155 -206 176 -266 139
-42 -26 -54 -48 -54 -94 0 -31 13 -51 89 -138 49 -57 126 -139 170 -183 45
-44 81 -83 81 -87 0 -5 -56 -8 -125 -8 -112 0 -127 -2 -145 -20 -24 -24 -25
-41 -5 -80 22 -43 48 -46 208 -24 l37 6 0 -271 0 -270 -67 3 c-38 1 -78 -1
-89 -5 -13 -4 -26 -3 -32 3 -16 16 -57 -4 -73 -34 l-12 -23 24 22 c23 21 32
21 168 18 149 -3 160 -7 161 -48 0 -25 -26 -32 -54 -13 -15 9 -26 11 -28 5 -2
-5 -26 -14 -53 -19 l-50 -9 61 3 c88 5 91 2 63 -85 l-24 -74 -290 0 c-287 0
-876 23 -893 34 -5 3 -11 27 -14 53 l-5 46 31 -4 c17 -2 110 -8 206 -14 96 -6
240 -15 320 -21 80 -5 226 -12 325 -13 99 -2 183 -4 188 -5 4 0 12 -12 17 -26
13 -34 53 -51 88 -39 25 9 41 47 17 42 -5 -2 -9 -7 -7 -11 4 -12 -26 -20 -52
-13 -28 7 -40 31 -27 53 9 17 -16 93 -31 93 -11 0 -10 -11 7 -40 8 -14 14 -28
15 -31 0 -4 -36 -6 -80 -6 l-80 1 0 28 c0 17 -4 27 -10 23 -5 -3 -10 -17 -10
-31 0 -21 -5 -24 -35 -24 -19 0 -35 4 -35 9 0 14 20 65 28 71 4 3 20 20 36 38
22 23 25 32 14 32 -24 0 -88 -89 -88 -123 0 -27 -2 -29 -28 -24 -16 3 -87 9
-158 12 -71 3 -153 8 -181 11 l-53 5 0 52 c-1 196 -90 407 -235 553 -98 100
-131 107 -475 108 -253 1 -256 0 -328 -26 -95 -35 -159 -83 -222 -166 -55 -72
-121 -199 -141 -272 -7 -25 -14 -47 -15 -48 -1 -2 -77 2 -168 9 -156 12 -167
12 -186 -6 -13 -12 -19 -29 -19 -49 2 -29 2 -29 6 -5 8 55 25 60 158 44 66 -8
137 -15 159 -15 l38 0 -6 -37 c-12 -67 -16 -73 -39 -68 -48 11 -261 45 -280
45 -71 0 140 -51 258 -62 25 -3 31 -8 33 -32 3 -25 1 -28 -20 -23 -41 11 -200
37 -222 37 -37 0 -71 24 -77 55 l-7 30 -1 -32 c-1 -28 19 -63 37 -63 4 0 65
-9 137 -20 72 -11 136 -20 143 -20 9 0 12 -26 12 -98 0 -168 32 -297 116 -467
29 -60 74 -135 99 -167 75 -94 193 -157 360 -192 44 -10 103 -23 132 -30 43
-11 82 -11 210 -1 213 18 254 33 351 133 l72 75 0 -673 c0 -640 1 -672 18
-658 9 8 44 27 76 42 53 23 63 25 95 15 l36 -12 -67 -18 c-78 -22 -238 -93
-238 -107 0 -5 -21 -12 -47 -16 -26 -3 -69 -13 -97 -22 l-51 -16 -275 97
c-399 141 -687 235 -720 235 -16 0 -40 -10 -54 -22 -35 -33 -146 -257 -146
-296 0 -37 26 -92 76 -162 19 -26 34 -50 34 -52 0 -3 -19 -18 -41 -33 l-42
-27 6 -87 c4 -47 9 -100 13 -117 5 -27 -13 -68 -120 -277 l-126 -246 0 -245 0
-246 25 0 c38 0 95 -27 95 -44 0 -13 -4 -13 -35 0 -40 16 -85 19 -85 4 0 -5 8
-10 18 -10 37 0 119 -50 168 -102 83 -88 107 -150 73 -189 -12 -13 -27 -36
-35 -51 -10 -19 -20 -26 -32 -22 -13 4 -14 3 -4 -4 10 -7 3 -13 -27 -26 -51
-20 -67 -20 -120 -1 l-41 14 0 -244 0 -245 579 0 579 0 101 62 c55 35 101 65
101 68 0 5 -108 62 -440 235 -74 39 -148 83 -165 99 -16 15 -49 32 -73 39 -31
8 -48 20 -58 39 -8 15 -36 46 -64 69 -85 71 -86 77 -52 172 64 174 109 253
238 414 41 51 74 99 74 108 0 8 2 15 5 15 2 0 35 -22 72 -49 38 -27 115 -79
173 -115 58 -35 110 -69 115 -74 6 -5 12 -53 13 -108 2 -54 5 -107 8 -117 3
-10 46 -38 96 -63 l91 -46 -7 -345 c-4 -190 -10 -358 -13 -374 l-5 -29 255 0
256 0 5 43 c3 23 10 132 16 242 7 110 13 205 15 212 3 8 14 8 45 1 55 -14 72
2 78 76 5 59 11 64 52 41 14 -8 36 -14 50 -15 14 0 116 52 235 121 228 130
370 209 378 209 3 0 -6 -26 -21 -58 -23 -48 -27 -70 -26 -142 0 -74 4 -94 32
-152 18 -37 32 -73 32 -80 -1 -7 -34 -40 -74 -73 -40 -33 -117 -100 -172 -149
-54 -49 -148 -130 -208 -180 -74 -62 -104 -92 -92 -94 9 -2 24 5 34 16 9 10
51 48 92 83 41 35 77 66 80 69 33 33 132 111 136 107 9 -9 -14 -43 -53 -78
-21 -18 -37 -38 -35 -43 2 -6 1 -8 -3 -4 -4 3 -19 -4 -33 -17 -70 -61 -120
-102 -142 -117 l-25 -17 41 0 c40 -1 47 5 172 124 72 69 138 125 146 125 40 0
20 -30 -90 -136 l-118 -114 125 0 125 0 99 100 c54 55 100 99 102 96 2 -2 10
-48 18 -102 l14 -99 -4 90 c-8 140 -39 248 -141 480 -40 92 -48 120 -47 170 0
80 47 200 116 295 28 40 67 93 85 117 46 65 51 90 19 117 -34 27 -99 164 -139
289 -29 93 -31 102 -18 150 32 132 91 285 133 347 46 67 98 121 110 113 5 -3
7 -1 4 4 -9 14 19 37 33 28 6 -4 9 -1 8 6 -4 15 72 61 90 54 6 -2 12 -1 12 4
0 16 90 34 144 28 87 -9 164 -56 217 -134 34 -49 99 -197 99 -223 -1 -28 -75
-155 -89 -152 -9 2 -12 -4 -8 -17 3 -11 -1 -25 -8 -31 -7 -6 -16 -26 -19 -44
-4 -18 -17 -43 -30 -55 l-23 -22 3 26 c1 15 0 24 -4 21 -3 -4 -7 -19 -8 -34
-4 -34 -30 -142 -50 -202 -21 -66 -18 -83 30 -222 60 -169 73 -265 57 -418
-14 -136 -15 -141 -86 -365 -56 -174 -95 -337 -94 -390 1 -47 13 -8 39 125 12
63 25 118 29 122 7 8 418 -108 511 -143 30 -12 71 -24 91 -26 31 -4 39 0 71
36 22 23 43 62 52 92 29 96 18 134 -42 145 -20 4 -47 14 -60 22 -12 8 -126 40
-253 72 -127 32 -233 61 -237 64 -3 4 107 120 245 259 193 193 261 268 290
319 50 88 346 408 376 408 12 0 51 -7 87 -16 88 -21 266 -56 500 -99 107 -19
207 -38 223 -41 l27 -6 0 -224 0 -225 -66 -82 c-36 -45 -92 -110 -125 -144
-63 -67 -70 -82 -39 -90 10 -3 22 -13 25 -23 9 -27 107 -66 276 -109 249 -63
266 -65 296 -46 23 16 25 21 19 68 -8 61 -43 192 -61 226 -11 22 -4 35 91 175
57 83 128 188 159 233 l56 83 -25 43 c-15 24 -26 52 -26 63 0 16 -17 22 -121
43 -134 27 -130 28 -149 -41 -12 -41 -24 -48 -34 -21 -4 9 -4 475 0 1035 l7
1018 -55 -24 -55 -24 -46 161 c-25 89 -58 225 -72 302 -14 77 -30 155 -36 172
-6 18 -8 37 -5 42 3 4 37 17 76 27 79 20 79 21 59 114 -6 28 -9 53 -7 54 1 2
41 -2 88 -9 100 -15 329 -28 260 -16 -25 5 -99 16 -165 25 -151 20 -547 76
-572 80 -15 3 -133 16 -198 21 -28 2 -35 82 -9 92 9 3 76 -1 148 -11 262 -35
678 -81 811 -91 135 -10 30 14 -157 35 -101 12 -183 23 -184 23 -1 1 -32 153
-69 337 -37 184 -80 396 -95 470 -15 74 -26 137 -24 139 2 2 13 -8 25 -23 32
-41 56 -50 78 -29 39 38 55 85 55 163 -1 94 -20 140 -72 175 -34 22 -44 25
-62 15 -12 -6 -23 -10 -24 -8 -1 2 -17 91 -35 198 -41 245 -50 276 -104 327
-56 54 -91 69 -157 65z m-74 -37 c-1 -8 -5 -17 -8 -21 -5 -4 -4 16 1 34 3 9 9
-1 7 -13z m-2531 -215 c-8 -13 7 -13 23 0 7 5 6 3 -2 -6 -14 -17 -41 -10 -31
7 4 5 8 9 11 9 3 0 2 -4 -1 -10z m64 -42 c-11 -20 -20 -24 -16 -7 1 6 -4 14
-12 17 -9 3 -11 0 -6 -8 5 -9 4 -11 -4 -6 -17 11 -4 24 23 22 20 -1 22 -4 15
-18z m889 -433 c3 -3 -31 -5 -76 -5 -45 0 -82 -4 -82 -9 0 -5 8 -11 18 -14 9
-2 1 -4 -18 -4 -19 0 -146 -3 -281 -8 -227 -7 -311 -4 -295 12 4 4 19 8 34 10
15 2 56 7 92 12 36 4 126 9 200 10 74 1 136 4 138 6 6 5 264 -4 270 -10z m337
-146 c27 -8 244 -10 682 -8 353 2 644 2 647 -1 6 -7 8 -16 46 -260 16 -107 37
-238 45 -290 8 -52 22 -151 31 -220 8 -68 18 -128 20 -132 3 -5 -5 -8 -18 -8
-20 0 -26 10 -46 74 -13 41 -31 81 -41 90 -36 33 -81 10 -81 -41 0 -13 6 -8
20 15 32 52 47 41 73 -50 14 -54 14 -58 -1 -58 -15 0 -15 -2 -2 -10 11 -8 7
-9 -15 -3 -16 4 -41 6 -55 5 -14 -1 -44 1 -67 4 -53 7 -55 22 -13 95 17 28 29
53 27 56 -7 6 -45 -51 -67 -100 -11 -25 -26 -47 -34 -50 -7 -3 -19 -25 -26
-50 -11 -35 -17 -43 -32 -39 -17 4 -17 6 2 32 11 16 20 33 20 38 0 6 7 18 16
27 9 9 13 19 9 23 -3 4 -11 -2 -17 -13 -11 -19 -11 -19 -18 0 -4 12 7 44 35
94 l42 76 44 0 c31 0 43 -4 41 -13 -1 -8 2 -11 8 -7 5 3 10 1 10 -6 0 -10 2
-10 13 0 22 22 -20 42 -93 42 -36 0 -77 0 -92 0 -88 1 -111 -8 -133 -52 -9
-16 -25 -39 -36 -50 -10 -10 -19 -26 -19 -34 0 -19 -7 -19 -210 0 -569 51
-782 69 -1000 85 -175 12 -404 30 -455 36 l-40 4 2 118 c1 64 8 224 14 354
l12 237 36 3 c89 7 679 -4 716 -13z m-2298 -325 c-3 -3 -12 -4 -19 -1 -8 3 -5
6 6 6 11 1 17 -2 13 -5z m68 -32 c-3 -3 -11 0 -18 7 -9 10 -8 11 6 5 10 -3 15
-9 12 -12z m49 -41 c-2 -3 -12 3 -22 13 -16 17 -16 18 5 5 12 -7 20 -15 17
-18z m37 -28 c13 -16 12 -17 -3 -4 -10 7 -18 15 -18 17 0 8 8 3 21 -13z m-228
-130 c-7 -2 -19 -2 -25 0 -7 3 -2 5 12 5 14 0 19 -2 13 -5z m1486 -69 c23 -29
27 -54 10 -54 -6 0 -26 -12 -45 -26 -37 -29 -43 -20 -18 27 8 17 13 36 11 42
-2 7 -12 -5 -22 -26 -30 -64 -56 -63 -37 1 11 36 38 60 69 61 6 1 21 -11 32
-25z m-1374 -23 c3 -5 -5 -11 -17 -13 -19 -3 -23 -9 -22 -40 1 -21 -3 -35 -7
-32 -10 6 -12 78 -2 87 9 10 41 8 48 -2z m3410 -56 c11 -3 7 -17 -20 -61 -19
-32 -35 -64 -35 -71 0 -10 -6 -9 -26 4 -23 14 -26 22 -21 57 4 37 3 39 -6 13
-9 -21 -15 -26 -31 -21 -29 9 -29 9 -14 41 10 21 21 28 43 28 17 0 39 5 49 12
11 6 26 9 33 7 7 -2 20 -6 28 -9z m-2010 -22 c-10 -40 -24 -53 -56 -53 -37 0
-37 14 0 51 39 38 66 39 56 2z m565 -33 c471 -38 800 -66 1084 -91 l128 -12
-6 -39 c-4 -23 -3 -37 3 -34 5 3 12 27 16 53 9 67 30 96 61 89 14 -4 33 -15
44 -26 11 -11 24 -20 28 -20 5 0 14 -11 19 -23 12 -26 2 -54 -16 -43 -6 4 -11
2 -11 -4 0 -6 -4 -8 -10 -5 -5 3 -10 1 -10 -5 0 -6 -4 -9 -9 -6 -5 4 -8 -2 -7
-11 2 -9 9 -19 17 -21 11 -3 11 -1 -1 7 -9 7 -10 11 -3 11 14 0 27 -19 19 -27
-3 -4 -18 -1 -32 6 -22 9 -25 17 -22 42 3 18 1 28 -6 26 -15 -5 -19 -58 -7
-90 11 -28 44 -37 57 -16 10 16 76 1 92 -22 7 -10 18 -19 24 -19 6 0 5 7 -3
17 -12 15 -12 16 6 9 10 -4 39 -10 63 -13 24 -3 38 -9 32 -13 -9 -6 -9 -9 0
-15 6 -4 17 -2 23 4 6 6 34 11 61 10 28 0 45 -3 39 -6 -7 -2 -13 -14 -12 -26
0 -21 1 -21 9 -2 14 32 11 -34 -5 -155 -8 -58 -15 -127 -14 -153 0 -27 -4 -46
-9 -43 -4 3 -6 -8 -4 -25 4 -28 -12 -42 -20 -17 -3 7 -5 -2 -5 -20 0 -21 3
-28 9 -20 12 19 10 -7 -6 -72 -34 -138 -102 -301 -119 -283 -4 3 0 17 8 30 12
18 13 28 5 41 -9 14 -10 14 -5 -6 4 -15 2 -22 -6 -20 -13 3 -20 -40 -7 -48 4
-3 8 -10 8 -15 0 -6 -4 -7 -10 -4 -5 3 -10 2 -10 -2 0 -5 -9 -14 -21 -21 -12
-8 -19 -10 -16 -5 3 5 -3 9 -13 9 -14 0 -16 -3 -8 -13 6 -8 8 -17 4 -20 -4 -4
-11 -1 -16 7 -9 13 -10 13 -11 0 -1 -8 -1 -17 -1 -20 0 -3 -12 -19 -26 -35
-15 -17 -23 -25 -19 -19 8 13 -10 30 -20 20 -4 -3 -1 -6 7 -6 10 0 10 -3 0
-15 -7 -8 -9 -15 -5 -15 4 0 -7 -14 -24 -32 -17 -17 -33 -40 -36 -49 -4 -11
-12 -16 -20 -12 -8 3 -12 9 -9 14 3 5 -2 6 -11 2 -12 -4 -13 -8 -4 -13 8 -5
-1 -15 -26 -28 l-39 -19 39 -13 38 -13 -24 -14 c-21 -12 -21 -13 -4 -11 27 3
45 -9 44 -30 0 -12 -3 -10 -10 7 -8 19 -12 21 -24 11 -19 -16 -20 -41 -1 -34
8 3 16 1 20 -4 8 -13 -5 -53 -15 -46 -5 3 -6 -2 -3 -10 4 -10 1 -16 -10 -16
-9 0 -13 -6 -10 -14 7 -17 -26 -77 -38 -70 -4 3 -5 -2 -2 -10 4 -11 0 -16 -10
-16 -9 0 -16 -6 -16 -14 0 -7 -7 -19 -15 -26 -8 -7 -12 -17 -8 -23 3 -6 1 -7
-5 -3 -7 4 -12 1 -12 -6 0 -18 -74 -90 -83 -82 -4 4 -7 0 -7 -9 0 -9 -5 -19
-11 -22 -5 -4 -3 10 6 31 15 36 30 53 48 54 4 0 7 5 7 10 0 20 -27 10 -40 -15
-7 -13 -21 -27 -31 -30 -9 -3 -24 -17 -33 -30 -10 -15 -22 -22 -31 -19 -8 3
-21 -1 -30 -9 -19 -20 -19 -27 0 -27 8 0 14 5 13 11 -2 6 3 14 11 17 9 3 11 0
6 -8 -5 -9 -4 -11 3 -6 7 4 12 2 12 -4 0 -6 5 -8 10 -5 6 4 8 10 5 15 -3 5 -1
11 4 14 5 4 12 2 15 -3 7 -10 -29 -44 -51 -47 -9 -2 -20 -10 -25 -18 -5 -8
-33 -23 -63 -32 -30 -10 -55 -22 -55 -26 0 -5 -4 -7 -10 -3 -5 3 -17 -6 -26
-21 -18 -27 -23 -27 -104 -9 -22 5 -22 4 -5 -4 l20 -10 -20 -1 c-16 -1 -14 -4
10 -14 l30 -14 -29 -11 c-16 -6 -31 -9 -34 -7 -2 3 -11 -2 -19 -10 -9 -8 -23
-12 -34 -9 -11 4 -19 2 -19 -4 0 -6 -8 -11 -19 -11 -10 0 -24 -7 -31 -15 -7
-9 -20 -13 -29 -10 -8 3 -12 3 -9 -1 9 -8 -55 -74 -71 -74 -6 0 -11 5 -11 11
0 5 4 7 10 4 6 -4 7 6 4 27 -11 60 -35 138 -45 143 -5 4 -9 11 -9 16 0 6 4 8
9 4 5 -3 13 0 17 6 4 8 3 9 -4 5 -13 -8 -12 20 1 41 4 6 2 15 -4 19 -8 4 -9 3
-5 -4 4 -7 2 -12 -4 -12 -7 0 -10 -7 -6 -15 3 -8 1 -15 -5 -15 -6 0 -7 -4 -4
-10 10 -16 1 -12 -77 30 -164 88 -394 149 -718 191 -52 7 -98 15 -103 19 -4 4
4 23 18 44 41 61 65 113 65 144 0 40 27 127 61 193 15 31 28 65 27 75 0 11 4
33 10 50 9 27 8 32 -6 29 -10 -1 -17 -9 -17 -18 0 -9 -8 -24 -17 -33 -13 -14
-20 -15 -31 -5 -12 9 -16 8 -20 -4 -7 -16 33 -32 52 -21 5 4 13 1 17 -5 4 -8
3 -9 -4 -5 -12 7 -16 -5 -13 -32 1 -7 -5 -15 -14 -18 -8 -3 -15 -12 -15 -19 0
-8 -12 -28 -27 -46 -16 -18 -21 -29 -13 -24 12 7 12 4 -1 -11 -9 -10 -16 -32
-14 -49 1 -16 0 -21 -2 -10 -3 11 -9 25 -15 32 -5 7 -7 16 -5 21 7 10 -34 10
-50 -1 -6 -4 -15 -2 -19 4 -5 8 -3 9 6 4 9 -5 11 -4 6 4 -4 6 -11 9 -16 6 -10
-6 -56 53 -52 67 1 5 -2 7 -8 3 -5 -3 -10 1 -10 9 0 9 -5 16 -11 16 -8 0 -8 4
0 14 8 9 8 25 2 52 -5 22 -10 32 -10 24 -1 -8 -4 -26 -7 -40 -4 -20 -3 -22 5
-10 9 13 11 13 11 -2 0 -10 -4 -18 -9 -18 -15 0 -25 22 -23 51 1 15 -5 32 -13
39 -8 7 -13 16 -10 19 2 4 -2 8 -10 8 -8 0 -11 -5 -8 -11 3 -6 1 -6 -7 1 -9 8
-10 19 -2 40 8 26 7 29 -11 30 -15 2 -17 -1 -8 -10 6 -6 11 -16 11 -22 0 -5
-7 -2 -14 8 -8 10 -12 28 -9 40 4 18 3 19 -6 7 -9 -13 -11 -11 -11 7 0 12 -6
28 -13 35 -7 7 -13 22 -14 33 -3 63 -9 81 -25 81 -15 0 -15 -3 -4 -16 7 -8 16
-28 20 -45 l6 -30 -25 28 c-14 16 -22 33 -19 39 4 7 2 8 -4 4 -14 -9 -30 22
-27 54 2 28 -14 70 -27 70 -4 0 -8 9 -8 20 0 11 -4 20 -10 20 -13 0 -13 -27 1
-35 6 -4 8 -14 5 -22 -4 -11 -2 -13 9 -9 8 3 15 4 15 2 0 -3 3 -12 7 -22 4
-12 3 -15 -5 -10 -16 10 -15 -6 1 -24 10 -12 9 -12 -6 0 -10 7 -16 19 -13 26
2 6 -5 14 -16 17 -11 3 -17 10 -14 16 4 6 -2 19 -12 29 -11 11 -30 55 -44 98
-20 64 -26 102 -27 199 -2 137 9 151 14 18 2 -48 10 -105 18 -126 l14 -39 3
69 c1 37 2 82 1 98 -5 109 -4 247 2 285 5 37 4 41 -4 20 -6 -14 -12 -59 -14
-100 -6 -143 -6 -139 -14 -110 -12 44 6 332 19 309 4 -6 13 -8 19 -5 6 4 11 2
11 -4 0 -6 5 -8 11 -4 7 4 24 7 38 6 20 0 27 5 28 20 2 15 -2 18 -15 13 -35
-15 -60 -17 -67 -4 -6 8 -4 10 5 4 8 -5 11 -4 6 3 -4 6 -14 8 -22 5 -10 -4
-17 2 -21 16 -3 11 -9 21 -13 21 -4 0 -12 11 -18 25 -11 24 -11 25 16 19 15
-4 29 -11 30 -16 2 -4 8 -8 13 -8 6 0 7 5 3 11 -4 8 28 9 112 5 148 -6 143 -6
119 -16 -15 -6 -16 -9 -4 -9 9 -1 24 8 34 19 27 30 109 24 84 -6 -15 -18 -6
-18 34 1 30 15 31 15 12 0 -11 -10 -52 -32 -91 -51 -39 -19 -79 -43 -89 -54
-11 -12 -31 -20 -52 -20 -18 0 -33 -5 -33 -11 0 -6 -7 -9 -15 -5 -8 3 -15 4
-15 2 0 -3 -3 -13 -6 -23 -4 -12 -3 -14 3 -6 13 18 110 25 116 9 7 -17 -28
-37 -50 -29 -15 6 -16 5 -3 -9 15 -16 40 -14 40 3 0 5 5 9 11 9 6 0 9 -7 5
-15 -3 -8 -1 -15 3 -15 5 0 19 -29 31 -64 24 -72 59 -127 130 -201 85 -89 130
-187 130 -282 0 -41 -1 -43 -24 -37 -13 3 -26 1 -30 -4 -3 -5 22 -15 56 -22
34 -6 83 -22 108 -35 70 -35 154 -135 132 -157 -9 -9 -88 -20 -144 -19 -15 0
-30 -4 -33 -10 -4 -5 2 -6 11 -2 12 5 15 3 9 -6 -6 -11 3 -12 44 -6 35 5 51 3
51 -4 0 -9 6 -9 23 0 21 11 21 11 -2 -15 -18 -19 -27 -23 -33 -14 -4 7 -8 9
-8 3 1 -5 7 -19 15 -29 15 -19 15 -19 15 2 0 12 4 22 10 22 5 0 7 -13 4 -29
-3 -16 -1 -38 5 -49 10 -19 13 -20 38 -7 51 27 135 38 243 32 80 -4 100 -2 85
6 -12 7 -71 12 -150 12 -105 0 -136 -3 -162 -17 -50 -28 -52 -8 -10 107 10 26
12 47 6 62 -7 20 -4 25 29 42 93 47 254 57 342 21 43 -17 83 -24 185 -29 128
-6 132 -7 261 -60 l132 -53 20 20 c19 19 98 42 146 42 39 0 124 -30 130 -45 4
-11 -9 -25 -42 -45 -46 -28 -122 -126 -122 -157 0 -8 -4 -11 -10 -8 -6 4 -7
-1 -3 -11 5 -13 3 -15 -7 -9 -8 5 -11 4 -7 -2 10 -16 -25 -127 -35 -111 -4 8
-6 -1 -2 -22 5 -33 5 -34 -10 -16 -15 19 -17 19 -51 3 -52 -25 -96 -22 -138
11 -20 15 -36 31 -37 36 0 4 -11 17 -25 28 -32 25 -23 41 13 25 15 -6 29 -14
32 -17 8 -8 53 -11 70 -4 9 3 -13 14 -56 28 -40 13 -105 44 -146 69 -77 48
-146 77 -182 77 -11 -1 13 -14 55 -31 86 -33 133 -73 186 -158 20 -31 45 -66
57 -79 14 -16 17 -25 9 -30 -8 -5 -7 -11 3 -19 8 -8 15 -9 19 -3 3 6 1 10 -6
10 -9 0 -10 3 -3 10 8 8 19 7 39 0 30 -11 84 -5 123 16 31 16 42 10 42 -19 0
-18 -2 -20 -11 -7 -9 13 -10 12 -5 -3 3 -10 -8 -70 -24 -132 -17 -63 -30 -118
-30 -122 0 -5 -5 -1 -10 7 -8 11 -9 9 -5 -11 4 -17 1 -32 -9 -42 -9 -8 -16
-22 -16 -30 0 -24 29 -28 49 -8 11 11 22 16 26 13 3 -4 3 2 -1 11 -4 12 -2 17
7 15 7 -2 14 6 16 17 l3 20 -9 -20 c-7 -14 -10 -15 -11 -5 0 9 -7 4 -16 -12
-8 -16 -19 -28 -24 -28 -5 0 -2 12 6 28 7 15 14 33 14 40 0 7 4 11 9 8 5 -4 7
4 3 16 -4 16 -2 19 8 13 8 -5 11 -4 7 2 -12 20 16 123 35 129 10 3 18 13 18
22 0 13 -3 13 -16 -4 -15 -18 -15 -18 -9 6 4 14 11 48 16 75 15 76 50 187 67
213 12 18 17 20 23 10 6 -9 9 -9 9 -1 0 6 -4 14 -10 18 -5 3 -7 12 -4 20 4 8
11 12 17 8 5 -3 7 -2 4 4 -20 32 94 124 170 139 34 7 36 10 49 114 12 97 60
195 184 370 114 160 123 195 13 48 -127 -172 -195 -298 -213 -398 -6 -36 -13
-75 -16 -86 -6 -31 -53 -41 -73 -16 -18 22 -70 42 -115 43 -30 0 -30 1 9 13
101 32 158 85 184 172 14 44 24 60 39 62 36 6 45 27 27 62 -9 17 -19 54 -22
82 -4 36 -14 60 -35 83 -15 18 -28 37 -28 42 0 5 -12 23 -27 40 -16 17 -40 52
-54 76 -34 57 -97 94 -198 119 -86 20 -202 24 -252 7 -19 -7 -48 -22 -64 -34
-33 -24 -73 -90 -62 -101 3 -4 25 1 49 11 76 31 75 30 56 9 -10 -11 -24 -38
-31 -60 -9 -24 -20 -39 -31 -39 -21 0 -36 -22 -36 -52 0 -13 -19 -53 -43 -90
-71 -111 -117 -198 -117 -222 0 -32 42 -69 86 -76 22 -4 57 -11 79 -17 l40
-10 -25 -13 c-17 -8 -60 -12 -130 -11 -86 2 -114 7 -155 26 -101 47 -278 35
-380 -25 l-41 -24 -18 29 c-25 43 -72 75 -141 98 l-60 19 -3 401 c-2 321 0
402 10 402 7 0 182 -16 388 -35 526 -48 580 -52 805 -70 219 -18 433 -41 457
-50 8 -3 21 -24 27 -47 8 -27 30 -56 63 -87 28 -25 69 -63 91 -83 40 -38 61
-46 72 -28 3 6 -2 10 -12 10 -10 0 -36 17 -59 38 -22 20 -57 51 -77 67 -24 19
-46 50 -61 88 -13 31 -25 59 -27 61 -7 7 -492 54 -924 91 -225 19 -458 39
-516 45 -59 6 -157 13 -218 17 -61 3 -110 9 -108 12 2 3 11 23 21 44 14 32 21
38 39 33 12 -3 245 -23 517 -46z m-672 12 c2 -7 -5 -12 -17 -12 -14 0 -19 5
-14 15 6 17 25 15 31 -3z m-828 -57 c0 -14 -2 -25 -4 -25 -2 0 -6 11 -8 25 -3
14 -1 25 3 25 5 0 9 -11 9 -25z m416 -72 c4 -14 3 -128 -1 -252 -5 -124 -8
-245 -7 -267 l2 -41 -62 -7 c-35 -4 -85 -11 -113 -16 -27 -5 -74 -11 -104 -15
l-54 -6 5 103 c5 92 10 115 50 218 51 130 110 251 130 267 15 12 104 41 130
42 11 1 20 -9 24 -26z m-1642 -59 c3 -8 2 -12 -4 -9 -6 3 -10 10 -10 16 0 14
7 11 14 -7z m4473 -209 c7 -50 22 -166 33 -260 12 -93 25 -186 30 -205 5 -19
10 -39 12 -45 3 -17 22 -33 32 -28 4 3 6 22 2 42 -8 50 3 61 66 68 l55 5 6
-53 c4 -30 10 -116 13 -193 l7 -138 34 5 c26 5 35 2 43 -13 13 -24 0 -32 -37
-21 -25 7 -121 -2 -128 -12 -1 -1 2 -36 6 -77 10 -96 11 -539 1 -523 -4 6 -70
19 -152 28 -80 9 -210 27 -289 41 -80 13 -151 24 -158 24 -20 0 -19 -286 2
-293 18 -8 382 -75 499 -92 48 -8 91 -17 95 -20 3 -4 8 -137 10 -296 l3 -290
-33 5 c-149 25 -445 79 -447 81 -2 2 6 51 17 110 12 59 21 115 21 124 0 25
-50 70 -91 81 -89 26 -837 160 -896 160 l-28 1 26 14 c14 8 81 30 150 50 134
40 213 77 236 111 7 12 50 50 95 85 175 138 282 306 307 484 8 57 16 73 60
128 27 34 79 90 114 124 35 35 78 89 95 121 36 68 75 197 97 322 14 78 45 370
45 423 0 12 6 17 18 15 13 -3 19 -21 29 -93z m-958 -131 l13 -57 -32 -25 c-19
-15 -29 -30 -25 -39 3 -9 1 -21 -5 -28 -15 -19 5 -29 29 -15 16 8 22 6 31 -10
12 -23 30 -25 75 -9 38 14 84 -4 96 -37 9 -27 -22 -99 -51 -114 -28 -15 -77
-4 -90 21 -19 35 -33 22 -26 -25 5 -33 3 -54 -10 -77 -10 -21 -14 -46 -11 -70
5 -35 3 -37 -26 -43 -17 -3 -38 -13 -47 -21 -14 -12 -23 -13 -51 -4 -19 7 -43
19 -53 28 -11 9 -16 11 -13 4 5 -7 0 -9 -14 -6 -21 6 -21 6 2 19 28 16 21 18
-15 4 -34 -12 -31 8 4 32 27 20 56 23 62 8 2 -5 14 0 28 11 22 18 22 19 3 9
-18 -8 -21 -8 -18 2 6 16 77 63 88 60 5 -1 6 2 2 8 -3 5 -1 10 4 10 20 0 11
38 -9 43 -11 3 -18 1 -15 -3 7 -12 -55 -61 -67 -54 -7 4 -8 2 -4 -4 12 -19
-49 -42 -113 -42 -91 0 -214 20 -233 37 -26 23 -22 60 13 128 62 120 110 185
135 185 28 0 29 2 8 41 -8 17 -14 33 -11 35 4 4 104 27 182 42 28 5 73 10 101
11 l51 1 12 -56z m-1822 -106 c-2 -24 -4 -5 -4 42 0 47 2 66 4 43 2 -24 2 -62
0 -85z m55 -335 c14 -21 45 -60 70 -88 25 -28 67 -96 96 -155 66 -138 173
-280 273 -364 l33 -28 -43 -83 -44 -82 -65 -6 c-67 -7 -89 -17 -102 -52 -7
-15 -9 -16 -9 -4 -1 19 -132 56 -426 119 -104 23 -200 45 -212 50 l-23 10 0
314 c0 245 3 316 13 324 12 11 348 80 393 81 14 1 30 -12 46 -36z m247 -319
c3 -16 1 -17 -13 -5 -19 16 -21 34 -3 29 6 -3 14 -13 16 -24z m1991 -124 c0
-5 -8 -10 -17 -10 -15 0 -16 2 -3 10 19 12 20 12 20 0z m10 -30 c0 -5 -5 -10
-11 -10 -5 0 -7 5 -4 10 3 6 8 10 11 10 2 0 4 -4 4 -10z m-1815 -60 c21 -23
12 -39 -12 -24 -17 10 -27 44 -14 44 4 0 16 -9 26 -20z m-40 -488 c-3 -3 -11
0 -18 7 -9 10 -8 11 6 5 10 -3 15 -9 12 -12z m1435 -17 c0 -5 -84 -55 -93 -55
-4 0 -7 5 -7 11 0 5 4 8 9 5 4 -3 23 6 41 19 32 24 50 31 50 20z m-173 -51
c-3 -3 -12 -4 -19 -1 -8 3 -5 6 6 6 11 1 17 -2 13 -5z m28 -14 c-3 -5 -11 -10
-16 -10 -6 0 -7 5 -4 10 3 6 11 10 16 10 6 0 7 -4 4 -10z m-1458 -16 c-3 -3
-12 -4 -19 -1 -8 3 -5 6 6 6 11 1 17 -2 13 -5z m-984 -27 c44 -19 58 -38 63
-89 8 -61 8 -62 21 -73 20 -16 52 -85 42 -91 -5 -3 -13 6 -18 19 -6 14 -14 28
-20 31 -6 4 -7 14 -4 23 4 10 2 14 -5 9 -6 -3 -13 2 -16 12 -4 10 -26 39 -49
64 -31 32 -57 48 -93 58 -66 18 -74 27 -28 35 39 6 67 12 72 14 1 0 17 -5 35
-12z m161 -67 c-6 -6 -10 -3 -10 10 0 13 4 16 10 10 7 -7 7 -13 0 -20z m-274
-9 c0 -5 -15 -20 -32 -33 -18 -12 -75 -60 -126 -106 -51 -46 -97 -82 -103 -80
-13 4 196 206 226 219 27 11 35 11 35 0z m1505 -99 c-6 -4 -24 -18 -40 -32
-29 -24 -29 -23 2 8 18 17 36 32 40 32 4 0 3 -3 -2 -8z m752 -138 c3 -9 -6
-59 -21 -110 -15 -52 -24 -99 -20 -106 4 -7 3 -8 -4 -4 -7 4 -14 -3 -18 -19
-3 -14 -8 -24 -11 -21 -6 6 17 205 29 244 10 34 34 43 45 16z m-78 -116 c-1
-19 -2 -17 -10 9 -5 18 -14 35 -19 38 -6 3 -10 11 -10 17 0 6 9 -1 20 -15 11
-14 20 -36 19 -49z m-918 39 c-10 -9 -11 -8 -5 6 3 10 9 15 12 12 3 -3 0 -11
-7 -18z m-1874 -108 c22 -8 24 -12 13 -19 -22 -14 -83 -13 -74 1 5 8 1 8 -14
0 -14 -8 -19 -18 -16 -35 2 -14 -3 -29 -13 -37 -15 -12 -16 -12 -10 3 3 9 0
22 -8 28 -12 10 -13 8 -10 -9 7 -35 15 -43 31 -30 23 19 16 2 -19 -49 -18 -26
-41 -73 -52 -104 -16 -49 -21 -55 -34 -45 -12 10 -13 9 -6 -3 5 -8 10 -76 12
-151 1 -74 7 -147 12 -162 6 -14 7 -27 3 -30 -4 -2 -2 -2 5 -1 6 2 17 -3 23
-11 6 -8 19 -11 28 -8 13 4 12 2 -3 -10 -22 -17 -3 -19 25 -3 8 5 2 -5 -14
-22 -34 -36 -32 -36 -42 -20 -4 7 -3 8 4 4 8 -5 10 -2 6 8 -3 9 -10 16 -15 16
-4 0 -6 8 -2 18 5 14 3 15 -7 5 -10 -9 -10 -15 -2 -26 7 -8 9 -17 5 -21 -3 -3
-15 6 -25 21 -10 16 -18 23 -18 16 0 -6 5 -15 10 -18 6 -4 8 -11 5 -16 -5 -8
7 -13 27 -11 12 2 17 -27 6 -34 -7 -5 -8 -2 -3 7 5 8 -5 1 -21 -16 -16 -16
-25 -33 -20 -36 11 -9 -11 -22 -24 -14 -5 3 -7 0 -4 -9 4 -12 -10 -45 -34 -76
-1 -2 -7 2 -12 10 -6 9 -10 10 -10 3 0 -6 5 -15 11 -18 7 -5 6 -12 -3 -23 -8
-10 -20 -35 -27 -57 -8 -21 -20 -45 -28 -53 -7 -7 -11 -17 -8 -22 5 -9 -53
-142 -66 -150 -4 -3 -7 -12 -7 -20 2 -32 -2 -50 -13 -50 -5 0 -7 5 -3 12 5 7
3 8 -5 3 -9 -5 -10 -10 -2 -18 15 -15 14 -30 -1 -21 -7 5 -9 2 -5 -9 9 -23
-29 -67 -53 -62 -33 6 -42 16 -37 41 2 13 0 21 -4 18 -5 -3 -9 4 -9 15 0 43
-42 130 -80 168 -22 21 -40 42 -40 47 0 6 7 1 15 -10 14 -18 14 -17 5 10 -7
20 -7 32 1 42 6 7 9 33 8 56 -3 31 6 65 31 126 19 45 38 82 43 82 4 0 5 5 2
10 -4 6 3 25 14 44 12 18 21 39 21 46 0 6 9 25 21 41 11 16 18 29 14 29 -3 0
0 12 8 28 8 15 23 46 33 70 20 50 40 68 30 28 -4 -15 -2 -26 4 -26 13 0 13 47
0 55 -5 3 -3 19 7 40 9 19 19 33 22 31 3 -2 7 7 7 21 1 13 9 32 17 41 8 9 17
29 21 44 3 15 12 33 19 40 7 7 14 26 15 41 2 33 13 44 70 74 52 26 72 22 67
-15 -4 -26 -4 -26 7 -4 8 15 17 21 30 16 22 -6 23 5 4 31 -12 17 -16 17 -30 6
-9 -8 -19 -12 -22 -9 -9 9 66 59 78 52 6 -4 8 -3 4 4 -7 12 42 51 66 52 9 0
29 -5 45 -11z m108 -37 c41 -16 64 -31 72 -47 16 -35 -1 -40 -26 -9 -15 19
-21 22 -21 11 0 -20 50 -68 63 -60 5 3 4 9 -3 13 -9 6 -9 9 0 15 6 4 9 13 6
20 -3 8 2 11 14 8 19 -5 17 -33 -2 -33 -5 0 -7 -4 -4 -9 7 -11 -39 -61 -57
-61 -7 0 -17 4 -23 10 -13 13 -66 -2 -72 -21 -4 -11 -2 -11 9 -3 23 18 48 24
54 13 4 -5 3 -8 -2 -7 -4 1 -19 -4 -33 -12 -14 -7 -38 -13 -55 -12 l-30 2 28
-14 c24 -13 32 -13 63 0 20 8 38 13 40 11 3 -3 -13 -12 -35 -20 -62 -25 -109
-97 -132 -202 -7 -33 -20 -66 -28 -73 -12 -10 -13 -15 -3 -18 6 -3 12 -15 12
-26 0 -23 -36 -78 -51 -78 -6 0 -8 4 -5 8 3 5 -1 9 -9 9 -8 0 -12 -4 -9 -9 9
-14 -6 -9 -23 7 -8 8 -16 30 -18 48 -1 17 -6 57 -9 87 -7 53 -5 71 36 228 6
23 15 42 19 42 4 0 10 14 14 30 4 17 11 28 16 24 5 -3 9 3 9 14 0 10 15 35 33
56 24 28 42 38 71 42 22 2 42 7 45 9 2 3 -11 3 -30 1 -19 -2 -44 -4 -56 -5
-12 0 -30 -10 -40 -21 -19 -19 -19 -19 -19 0 0 15 9 21 36 25 19 3 46 12 60
19 14 8 27 13 30 12 3 0 32 -11 65 -24z m-252 -66 c4 -10 0 -12 -14 -9 -10 3
-16 9 -13 14 8 13 21 11 27 -5z m438 -7 c19 -10 16 -13 -33 -49 -29 -21 -54
-37 -56 -35 -5 5 53 94 61 95 5 0 17 -5 28 -11z m2549 -103 c0 -2 -8 -10 -17
-17 -16 -13 -17 -12 -4 4 13 16 21 21 21 13z m-2690 -20 c0 -2 -8 -10 -17 -17
-16 -13 -17 -12 -4 4 13 16 21 21 21 13z m2855 -448 c-31 -35 -82 -85 -113
-112 -31 -26 -97 -87 -147 -135 l-90 -86 -7 65 c-4 36 -7 68 -5 72 2 6 406
257 415 258 2 0 -22 -28 -53 -62z m1775 -20 c0 -35 -78 -189 -99 -196 -18 -6
-14 131 6 178 17 39 28 47 71 49 18 1 22 -4 22 -31z m-5150 -658 c-6 -61 -5
-96 5 -152 l8 -48 -37 -15 c-42 -18 -46 -16 -203 77 l-86 50 31 20 c17 11 41
35 53 55 l22 35 21 -25 c11 -14 30 -28 42 -31 27 -8 69 25 78 59 6 22 11 26
39 23 32 -3 32 -4 27 -48z m3030 46 c0 -2 -8 -10 -17 -17 -16 -13 -17 -12 -4
4 13 16 21 21 21 13z m-58 -88 c-7 -7 -12 -8 -12 -2 0 14 12 26 19 19 2 -3 -1
-11 -7 -17z m-2727 -44 c34 -31 36 -103 3 -135 -57 -54 -174 -82 -229 -54 -68
35 -67 37 44 65 57 15 109 30 115 34 7 4 6 24 -3 61 -7 30 -11 56 -8 58 9 10
55 -7 78 -29z m3216 -155 c-17 -23 -31 -53 -31 -66 0 -27 -2 -27 -38 -9 -15 7
-53 17 -84 20 -94 12 -74 33 57 61 44 9 89 23 100 30 30 20 29 11 -4 -36z"/>
<path d="M2450 4450 c-34 -7 -34 -7 13 -9 30 0 46 3 42 9 -3 6 -9 9 -13 9 -4
-1 -23 -5 -42 -9z"/>
<path d="M2297 4426 c-4 -10 -1 -13 8 -9 8 3 12 9 9 14 -7 12 -11 11 -17 -5z"/>
<path d="M2548 4423 c12 -2 32 -2 45 0 12 2 2 4 -23 4 -25 0 -35 -2 -22 -4z"/>
<path d="M2488 4383 c7 -3 16 -2 19 1 4 3 -2 6 -13 5 -11 0 -14 -3 -6 -6z"/>
<path d="M2470 4290 l-25 -8 27 -1 c15 -1 30 4 33 9 7 11 0 11 -35 0z"/>
<path d="M2415 4270 c-3 -5 -2 -10 4 -10 5 0 13 5 16 10 3 6 2 10 -4 10 -5 0
-13 -4 -16 -10z"/>
<path d="M4937 4213 c19 -4 20 -7 11 -33 -5 -16 -8 -35 -5 -42 3 -7 6 -3 6 10
1 13 5 21 9 18 5 -3 8 7 7 22 -1 21 -6 27 -25 28 -21 1 -21 0 -3 -3z"/>
<path d="M2311 4184 c0 -11 3 -14 6 -6 3 7 2 16 -1 19 -3 4 -6 -2 -5 -13z"/>
<path d="M4977 4154 c-4 -4 -7 -14 -7 -23 0 -11 3 -12 11 -4 6 6 10 16 7 23
-2 6 -7 8 -11 4z"/>
<path d="M4950 4105 c0 -5 4 -16 9 -23 6 -11 10 -10 15 4 3 9 4 19 1 22 -3 3
-5 -1 -5 -9 0 -11 -2 -11 -10 1 -5 8 -10 11 -10 5z"/>
<path d="M2311 4074 c0 -11 3 -14 6 -6 3 7 2 16 -1 19 -3 4 -6 -2 -5 -13z"/>
<path d="M2311 3994 c0 -11 3 -14 6 -6 3 7 2 16 -1 19 -3 4 -6 -2 -5 -13z"/>
<path d="M4961 3964 c0 -11 3 -14 6 -6 3 7 2 16 -1 19 -3 4 -6 -2 -5 -13z"/>
<path d="M2560 3849 c0 -8 11 -47 24 -86 13 -38 27 -88 31 -111 4 -26 12 -42
21 -42 18 0 18 -3 -6 90 -19 74 -70 182 -70 149z"/>
<path d="M2491 3764 c0 -11 3 -14 6 -6 3 7 2 16 -1 19 -3 4 -6 -2 -5 -13z"/>
<path d="M2280 3764 c0 -6 7 -17 15 -24 12 -10 16 -9 21 4 4 9 4 20 0 23 -3 4
-6 -2 -6 -12 0 -18 -1 -18 -15 1 -8 10 -15 14 -15 8z"/>
<path d="M4558 3732 c-33 -56 -51 -141 -44 -213 5 -44 3 -76 -4 -89 -7 -12 -8
-25 -4 -28 4 -4 9 -2 11 5 2 7 15 28 29 48 28 42 29 45 10 45 -34 0 -35 88 -2
185 14 39 23 71 22 72 -1 1 -9 -10 -18 -25z"/>
<path d="M4884 3685 c-3 -8 -4 -20 -2 -27 3 -7 7 -1 10 15 6 29 1 36 -8 12z"/>
<path d="M2511 3674 c0 -11 3 -14 6 -6 3 7 2 16 -1 19 -3 4 -6 -2 -5 -13z"/>
<path d="M4901 3664 c0 -11 3 -14 6 -6 3 7 2 16 -1 19 -3 4 -6 -2 -5 -13z"/>
<path d="M2531 3594 c0 -11 3 -14 6 -6 3 7 2 16 -1 19 -3 4 -6 -2 -5 -13z"/>
<path d="M4805 3519 c-4 -6 -5 -12 -2 -15 2 -3 7 2 10 11 7 17 1 20 -8 4z"/>
<path d="M4853 3502 c-1 -22 0 -24 9 -8 6 10 6 22 2 26 -5 5 -10 -3 -11 -18z"/>
<path d="M3198 3483 c12 -2 30 -2 40 0 9 3 -1 5 -23 4 -22 0 -30 -2 -17 -4z"/>
<path d="M2541 3384 c0 -11 3 -14 6 -6 3 7 2 16 -1 19 -3 4 -6 -2 -5 -13z"/>
<path d="M2968 3383 c7 -3 16 -2 19 1 4 3 -2 6 -13 5 -11 0 -14 -3 -6 -6z"/>
<path d="M2961 3323 c0 -29 2 -33 8 -18 7 18 4 55 -5 55 -2 0 -4 -17 -3 -37z"/>
<path d="M2869 3281 c11 -7 9 -10 -10 -14 l-24 -5 24 1 c28 2 42 27 14 27 -14
0 -15 -2 -4 -9z"/>
<path d="M2805 3250 c3 -5 8 -10 11 -10 2 0 4 5 4 10 0 6 -5 10 -11 10 -5 0
-7 -4 -4 -10z"/>
<path d="M3113 3164 c-17 -7 -35 -19 -38 -25 -6 -8 -2 -8 13 0 26 14 107 14
133 1 27 -15 25 5 -3 24 -27 19 -62 19 -105 0z"/>
<path d="M3956 3161 c-3 -5 1 -12 10 -15 22 -8 25 -4 9 11 -8 7 -16 9 -19 4z"/>
<path d="M3425 3130 c-4 -6 6 -10 22 -10 47 -1 110 -35 130 -72 16 -31 18 -32
21 -10 5 32 -20 66 -61 86 -39 18 -102 22 -112 6z"/>
<path d="M4106 3125 c-3 -9 -6 -22 -5 -28 0 -7 5 -1 10 12 5 13 8 26 5 28 -2
2 -6 -3 -10 -12z"/>
<path d="M2676 3121 c-9 -14 5 -42 18 -38 6 2 12 12 13 23 3 19 3 19 -5 0 -6
-14 -11 -16 -16 -8 -4 7 -4 17 -1 22 3 6 4 10 1 10 -3 0 -7 -4 -10 -9z"/>
<path d="M2816 3104 c-4 -9 -4 -19 -1 -22 3 -3 5 0 5 7 0 7 4 9 10 6 6 -3 7 1
4 9 -8 20 -10 20 -18 0z"/>
<path d="M3911 3089 c17 -11 39 -12 39 -1 0 4 -12 8 -27 9 -19 1 -22 -1 -12
-8z"/>
<path d="M4490 3090 c20 -13 33 -13 25 0 -3 6 -14 10 -23 10 -15 0 -15 -2 -2
-10z"/>
<path d="M3880 3081 c0 -15 40 -30 60 -23 18 7 15 9 -20 18 -22 6 -40 8 -40 5z"/>
<path d="M2995 3040 c-3 -5 -11 -45 -17 -90 -14 -92 -5 -117 31 -81 18 18 19
23 6 47 -14 28 -9 57 6 33 6 -9 9 5 9 37 0 37 -4 54 -15 57 -8 4 -17 2 -20 -3z"/>
<path d="M3280 2960 c-35 -69 -64 -121 -87 -156 -17 -27 -11 -43 10 -26 27 23
129 242 112 242 -3 0 -18 -27 -35 -60z"/>
<path d="M4131 3005 c1 -19 18 -51 18 -35 0 8 -4 22 -9 30 -5 8 -9 11 -9 5z"/>
<path d="M4525 2990 c-3 -5 -1 -10 4 -10 6 0 11 5 11 10 0 6 -2 10 -4 10 -3 0
-8 -4 -11 -10z"/>
<path d="M4488 2958 c5 -7 12 -22 15 -33 4 -16 5 -14 6 6 1 17 -5 29 -15 33
-13 5 -14 3 -6 -6z"/>
<path d="M3900 2949 c0 -5 -4 -7 -10 -4 -6 3 -7 -1 -4 -10 4 -9 7 -15 8 -13 1
2 8 11 15 21 9 11 10 17 2 17 -6 0 -11 -5 -11 -11z"/>
<path d="M4015 2927 c3 -21 2 -44 -4 -51 -6 -7 -6 -17 -1 -26 6 -9 10 1 15 32
4 29 3 53 -5 65 -9 15 -10 11 -5 -20z"/>
<path d="M3580 2908 c0 -36 -34 -117 -53 -131 -7 -5 -3 -7 12 -5 13 2 33 15
44 29 24 33 39 109 25 127 -18 21 -28 13 -28 -20z"/>
<path d="M4125 2930 c3 -5 8 -10 11 -10 2 0 4 5 4 10 0 6 -5 10 -11 10 -5 0
-7 -4 -4 -10z"/>
<path d="M3844 2906 c-12 -11 -32 -29 -45 -40 l-24 -18 25 7 c14 4 36 14 50
23 14 9 31 15 38 14 10 -3 10 1 0 17 -15 25 -17 25 -44 -3z"/>
<path d="M4480 2890 c6 -11 15 -18 21 -15 13 9 11 13 -12 25 -19 11 -20 10 -9
-10z"/>
<path d="M4120 2870 c-8 -5 -12 -12 -9 -15 4 -3 12 1 19 10 14 17 11 19 -10 5z"/>
<path d="M3825 2850 c-16 -6 -14 -8 13 -7 17 0 32 4 32 9 0 10 -18 9 -45 -2z"/>
<path d="M4031 2844 c0 -11 3 -14 6 -6 3 7 2 16 -1 19 -3 4 -6 -2 -5 -13z"/>
<path d="M3870 2816 c0 -2 7 -7 16 -10 8 -3 12 -2 9 4 -6 10 -25 14 -25 6z"/>
<path d="M4003 2792 c-1 -22 0 -24 9 -8 6 10 6 22 2 26 -5 5 -10 -3 -11 -18z"/>
<path d="M4410 2789 c-7 -11 -10 -23 -7 -25 2 -2 9 7 15 21 14 30 7 33 -8 4z"/>
<path d="M3908 2794 c-4 -3 -32 -16 -63 -29 l-57 -23 36 -12 c39 -12 72 -7 61
10 -3 6 4 10 17 11 13 0 17 3 11 6 -7 2 -13 9 -13 14 0 6 4 8 8 5 5 -3 9 1 9
9 0 17 -1 17 -9 9z"/>
<path d="M3798 2773 c7 -3 16 -2 19 1 4 3 -2 6 -13 5 -11 0 -14 -3 -6 -6z"/>
<path d="M3136 2733 c-3 -3 -3 -10 0 -14 7 -12 34 -11 34 0 0 11 -26 22 -34
14z"/>
<path d="M3910 2720 c0 -13 3 -20 7 -17 3 4 12 2 20 -4 20 -17 16 -1 -7 23
l-20 22 0 -24z"/>
<path d="M4350 2705 c-20 -24 -6 -28 15 -5 10 11 13 20 8 20 -6 0 -16 -7 -23
-15z"/>
<path d="M3920 2669 c0 -5 5 -7 10 -4 6 3 10 8 10 11 0 2 -4 4 -10 4 -5 0 -10
-5 -10 -11z"/>
<path d="M3949 2665 c-7 -31 2 -65 17 -65 16 0 18 12 5 26 -5 5 -11 20 -13 34
-4 22 -5 22 -9 5z"/>
<path d="M4174 2584 c3 -9 6 -18 6 -20 0 -3 4 -3 10 1 11 7 2 35 -12 35 -6 0
-7 -7 -4 -16z"/>
<path d="M4126 2558 c5 -8 1 -9 -12 -4 -14 5 -16 4 -7 -4 7 -8 17 -9 28 -3 16
9 16 10 1 16 -12 5 -15 3 -10 -5z"/>
<path d="M4016 2495 c-3 -9 0 -15 9 -15 9 0 12 6 9 15 -4 8 -7 15 -9 15 -2 0
-5 -7 -9 -15z"/>
<path d="M3938 2443 c7 -3 16 -2 19 1 4 3 -2 6 -13 5 -11 0 -14 -3 -6 -6z"/>
<path d="M3706 2380 c8 -43 14 -51 14 -19 0 13 -5 31 -10 39 -7 11 -8 5 -4
-20z"/>
<path d="M3743 2383 c-7 -15 -13 -32 -13 -39 0 -7 -6 -15 -12 -17 -10 -4 -10
-6 0 -6 7 -1 17 10 22 23 5 13 18 31 30 39 18 13 19 15 5 21 -9 3 -17 6 -18 6
-1 0 -8 -12 -14 -27z"/>
<path d="M3828 2403 c7 -3 16 -2 19 1 4 3 -2 6 -13 5 -11 0 -14 -3 -6 -6z"/>
<path d="M3900 4002 c-19 -16 -20 -19 -7 -30 12 -11 15 -10 13 5 0 9 7 19 17
21 17 3 17 1 6 -20 l-12 -23 25 23 c31 29 46 28 54 -3 3 -14 12 -25 20 -25 40
0 -10 56 -57 64 -27 5 -42 2 -59 -12z"/>
<path d="M3748 3829 c13 -5 44 -25 68 -45 24 -20 47 -34 51 -30 3 3 4 7 2 9
-61 49 -106 77 -123 76 -20 0 -20 -1 2 -10z"/>
<path d="M4225 3770 c-11 -5 -14 -9 -7 -9 7 -1 10 -6 6 -12 -3 -6 -15 -9 -25
-6 -14 4 -21 -1 -25 -18 -8 -32 2 -45 35 -45 35 0 53 20 54 61 2 35 -7 42 -38
29z m8 -47 c3 -5 -8 -8 -25 -9 -20 -1 -25 2 -16 7 16 11 35 11 41 2z"/>
<path d="M4090 3646 c0 -2 7 -9 15 -16 13 -11 14 -10 9 4 -5 14 -24 23 -24 12z"/>
<path d="M4045 3550 c-3 -5 -1 -10 4 -10 6 0 11 5 11 10 0 6 -2 10 -4 10 -3 0
-8 -4 -11 -10z"/>
<path d="M3990 3520 c0 -5 5 -10 11 -10 5 0 7 5 4 10 -3 6 -8 10 -11 10 -2 0
-4 -4 -4 -10z"/>
<path d="M3885 3510 c-3 -6 1 -7 9 -4 18 7 21 14 7 14 -6 0 -13 -4 -16 -10z"/>
<path d="M4020 3500 c0 -6 11 -8 28 -4 39 10 40 14 4 14 -18 0 -32 -5 -32 -10z"/>
<path d="M4046 3481 c-3 -4 6 -6 19 -3 14 2 25 6 25 8 0 8 -39 4 -44 -5z"/>
<path d="M2757 3009 c7 -7 15 -10 18 -7 3 3 -2 9 -12 12 -14 6 -15 5 -6 -5z"/>
<path d="M1610 2370 c0 -8 -9 -10 -26 -6 -17 5 -23 3 -19 -4 3 -5 13 -10 21
-10 8 0 13 -3 10 -8 -2 -4 2 -16 10 -27 10 -14 14 -15 15 -4 0 8 4 6 9 -6 7
-16 8 -13 7 13 -2 27 -4 30 -14 17 -6 -10 -14 -12 -17 -6 -3 5 1 16 9 25 9 9
11 17 5 21 -5 3 -10 1 -10 -5z"/>
<path d="M820 1900 c0 -5 5 -10 11 -10 5 0 7 5 4 10 -3 6 -8 10 -11 10 -2 0
-4 -4 -4 -10z"/>
<path d="M651 1714 c0 -11 3 -14 6 -6 3 7 2 16 -1 19 -3 4 -6 -2 -5 -13z"/>
<path d="M651 1674 c0 -11 3 -14 6 -6 3 7 2 16 -1 19 -3 4 -6 -2 -5 -13z"/>
<path d="M515 1630 c-3 -5 -1 -10 4 -10 6 0 11 5 11 10 0 6 -2 10 -4 10 -3 0
-8 -4 -11 -10z"/>
<path d="M530 1610 c-8 -5 -12 -12 -9 -15 4 -3 12 1 19 10 14 17 11 19 -10 5z"/>
<path d="M641 1564 c0 -11 3 -14 6 -6 3 7 2 16 -1 19 -3 4 -6 -2 -5 -13z"/>
<path d="M498 1533 c7 -3 16 -2 19 1 4 3 -2 6 -13 5 -11 0 -14 -3 -6 -6z"/>
<path d="M440 1485 c0 -6 4 -15 9 -20 5 -6 11 -19 14 -30 5 -20 5 -19 6 1 0
11 -6 29 -14 40 -8 10 -15 14 -15 9z"/>
<path d="M435 1380 c-3 -5 -1 -10 4 -10 6 0 11 5 11 10 0 6 -2 10 -4 10 -3 0
-8 -4 -11 -10z"/>
<path d="M381 1284 c0 -11 3 -14 6 -6 3 7 2 16 -1 19 -3 4 -6 -2 -5 -13z"/>
<path d="M350 1266 c0 -9 5 -16 10 -16 6 0 10 4 10 9 0 6 -4 13 -10 16 -5 3
-10 -1 -10 -9z"/>
<path d="M335 1230 c-3 -5 -1 -10 4 -10 6 0 11 5 11 10 0 6 -2 10 -4 10 -3 0
-8 -4 -11 -10z"/>
<path d="M301 1124 c14 -50 20 -56 16 -15 -2 17 -9 37 -15 43 -8 8 -9 1 -1
-28z"/>
<path d="M560 1111 c0 -4 9 -16 20 -26 11 -10 20 -14 20 -9 0 5 -9 17 -20 27
-11 9 -20 13 -20 8z"/>
<path d="M280 1105 c0 -5 5 -17 10 -25 5 -8 10 -10 10 -5 0 6 -5 17 -10 25 -5
8 -10 11 -10 5z"/>
<path d="M560 1071 c0 -10 19 -25 25 -20 1 2 -3 10 -11 17 -8 7 -14 8 -14 3z"/>
<path d="M527 950 c4 -16 3 -21 -5 -16 -7 4 -12 2 -12 -3 0 -17 20 -13 27 5 3
8 1 20 -5 26 -8 8 -9 4 -5 -12z"/>
<path d="M490 910 c0 -11 4 -20 9 -20 5 0 7 9 4 20 -3 11 -7 20 -9 20 -2 0 -4
-9 -4 -20z"/>
<path d="M221 834 c0 -11 3 -14 6 -6 3 7 2 16 -1 19 -3 4 -6 -2 -5 -13z"/>
<path d="M220 806 c0 -2 7 -9 15 -16 9 -7 15 -8 15 -2 0 5 -7 12 -15 16 -8 3
-15 4 -15 2z"/>
<path d="M296 763 c-6 -15 -8 -15 -16 -3 -15 24 -18 7 -3 -20 9 -19 13 -20 13
-7 0 9 4 17 9 17 5 0 11 7 15 15 3 8 1 15 -3 15 -5 0 -12 -8 -15 -17z"/>
<path d="M438 747 c-3 -19 -2 -25 4 -19 6 6 8 18 6 28 -3 14 -5 12 -10 -9z"/>
<path d="M810 1805 c-18 -19 -31 -38 -27 -42 4 -3 7 -1 7 6 0 7 5 9 10 6 6 -4
9 -2 8 2 -2 5 11 21 27 36 17 14 25 27 19 27 -5 0 -25 -16 -44 -35z"/>
<path d="M830 1786 c0 -2 7 -7 16 -10 8 -3 12 -2 9 4 -6 10 -25 14 -25 6z"/>
<path d="M965 1771 c-3 -6 5 -15 17 -21 21 -10 22 -10 5 3 -14 11 -15 16 -5
20 9 4 9 6 1 6 -6 1 -14 -3 -18 -8z"/>
<path d="M894 1755 c8 -8 18 -15 22 -15 3 0 1 7 -6 15 -7 8 -17 15 -22 15 -5
0 -3 -7 6 -15z"/>
<path d="M776 1723 c-6 -14 -5 -15 5 -6 7 7 10 15 7 18 -3 3 -9 -2 -12 -12z"/>
<path d="M868 1659 c-10 -5 -23 -20 -29 -32 -9 -18 -6 -17 16 6 14 15 31 24
37 21 7 -4 8 -2 4 4 -8 14 -7 14 -28 1z"/>
<path d="M815 1650 c-3 -5 -1 -10 4 -10 6 0 11 5 11 10 0 6 -2 10 -4 10 -3 0
-8 -4 -11 -10z"/>
<path d="M805 1600 c-8 -13 3 -30 18 -30 8 0 7 3 -2 9 -7 5 -10 14 -7 20 4 6
5 11 2 11 -3 0 -8 -4 -11 -10z"/>
<path d="M701 1494 c0 -11 3 -14 6 -6 3 7 2 16 -1 19 -3 4 -6 -2 -5 -13z"/>
<path d="M691 1465 c1 -19 18 -51 18 -35 0 8 -4 22 -9 30 -5 8 -9 11 -9 5z"/>
<path d="M750 1441 c0 -6 4 -13 10 -16 6 -3 7 1 4 9 -7 18 -14 21 -14 7z"/>
<path d="M722 1420 c0 -14 2 -19 5 -12 2 6 2 18 0 25 -3 6 -5 1 -5 -13z"/>
<path d="M692 1390 c0 -14 2 -19 5 -12 2 6 2 18 0 25 -3 6 -5 1 -5 -13z"/>
<path d="M746 1391 c-4 -7 -5 -15 -2 -18 9 -9 19 4 14 18 -4 11 -6 11 -12 0z"/>
<path d="M710 1363 c0 -21 3 -24 9 -14 5 8 7 20 4 28 -8 21 -13 15 -13 -14z"/>
<path d="M730 1321 c0 -6 5 -13 10 -16 6 -3 10 1 10 9 0 9 -4 16 -10 16 -5 0
-10 -4 -10 -9z"/>
<path d="M2686 6068 c-17 -24 -23 -69 -7 -52 5 5 11 18 14 29 4 18 5 18 6 -2
1 -18 7 -23 31 -23 17 0 33 -7 39 -17 10 -17 10 -17 11 0 0 11 8 17 23 17 12
1 32 6 45 13 22 12 21 13 -13 13 -22 0 -30 -3 -22 -9 9 -6 8 -7 -3 -4 -29 8
-16 32 17 31 56 -2 87 -26 46 -37 -14 -4 -12 -5 5 -6 28 -1 29 22 2 49 -17 17
-33 20 -99 20 -71 0 -82 -2 -95 -22z m64 -28 c0 -3 -9 -6 -20 -7 -23 -2 -25 3
-7 21 11 13 26 4 27 -14z m30 6 c0 -3 -4 -8 -10 -11 -5 -3 -10 -1 -10 4 0 6 5
11 10 11 6 0 10 -2 10 -4z"/>
<path d="M6150 5072 c-39 -18 -69 -46 -80 -75 -7 -18 -26 -66 -43 -107 -62
-154 -130 -386 -166 -563 -5 -23 -16 -76 -26 -117 -9 -41 -18 -86 -20 -100 -2
-14 -17 -92 -34 -175 -80 -400 -97 -566 -88 -865 9 -269 36 -422 83 -461 21
-17 107 -45 169 -55 28 -4 57 -9 65 -10 8 -2 35 -6 60 -9 25 -3 60 -8 78 -11
l32 -6 0 1281 c0 704 -3 1281 -7 1280 -5 0 -15 -3 -23 -7z"/>
<path d="M2391 4669 c-6 -18 -7 -38 -2 -46 6 -11 10 -2 14 28 7 54 3 60 -12
18z"/>
<path d="M2540 4620 c0 -5 7 -10 16 -10 8 0 12 5 9 10 -3 6 -10 10 -16 10 -5
0 -9 -4 -9 -10z"/>
<path d="M5963 2517 c23 -19 170 -59 200 -55 12 2 -23 15 -78 29 -55 14 -109
29 -120 33 -19 7 -19 7 -2 -7z"/>
<path d="M3090 2210 c-9 -6 -10 -10 -3 -10 6 0 15 5 18 10 8 12 4 12 -15 0z"/>
<path d="M2996 2134 c-7 -19 0 -34 17 -34 8 0 7 4 -2 9 -12 8 -12 12 -2 25 8
9 9 16 3 16 -5 0 -13 -7 -16 -16z"/>
<path d="M2967 2099 c7 -7 15 -10 18 -7 3 3 -2 9 -12 12 -14 6 -15 5 -6 -5z"/>
<path d="M2946 2067 c3 -10 9 -15 12 -12 3 3 0 11 -7 18 -10 9 -11 8 -5 -6z"/>
<path d="M2927 2054 c-3 -5 1 -15 9 -22 16 -14 18 -5 5 17 -5 7 -11 9 -14 5z"/>
<path d="M2876 1905 c5 -11 2 -14 -10 -9 -15 6 -14 0 4 -47 11 -30 20 -61 20
-69 0 -24 54 -132 84 -167 33 -39 92 -51 165 -33 58 14 133 59 155 92 21 33
31 78 16 78 -6 0 -8 -5 -5 -11 12 -18 -86 -102 -140 -122 -58 -20 -109 -23
-103 -5 2 6 10 14 18 16 7 3 10 0 7 -5 -3 -5 3 -9 14 -9 19 0 19 1 2 13 -11 9
-32 12 -58 8 -22 -3 -45 -2 -50 2 -24 18 -46 65 -40 86 5 16 4 18 -4 8 -7 -11
-15 4 -32 60 -12 41 -26 77 -31 80 -5 3 -6 13 -3 21 4 9 2 19 -4 23 -7 3 -8 0
-5 -10z"/>
<path d="M2906 1877 c3 -10 9 -15 12 -12 3 3 0 11 -7 18 -10 9 -11 8 -5 -6z"/>
<path d="M2935 1881 c-3 -5 -1 -12 5 -16 5 -3 10 1 10 9 0 18 -6 21 -15 7z"/>
<path d="M3230 1740 c-9 -6 -10 -10 -3 -10 6 0 15 5 18 10 8 12 4 12 -15 0z"/>
<path d="M3220 1681 c-20 -6 -22 -8 -8 -13 9 -4 22 -1 28 8 7 8 11 14 9 13 -2
-1 -15 -4 -29 -8z"/>
<path d="M3443 1675 c-4 -5 -3 -7 2 -3 4 4 14 3 20 -2 9 -7 14 -7 18 3 6 15
-32 18 -40 2z"/>
<path d="M3107 1673 c-13 -12 -7 -31 11 -38 13 -5 14 -3 5 6 -6 6 -9 18 -6 25
5 15 1 18 -10 7z"/>
<path d="M3158 1643 c6 -2 18 -2 25 0 6 3 1 5 -13 5 -14 0 -19 -2 -12 -5z"/>
<path d="M3212 1527 c-40 -47 -95 -280 -90 -382 1 -33 -1 -96 -6 -140 -6 -64
-3 -100 14 -185 24 -123 48 -200 61 -200 11 0 11 7 -1 50 -20 70 -50 233 -49
269 1 22 3 28 6 16 10 -39 39 -62 57 -45 3 3 12 53 21 110 9 58 23 132 31 165
19 81 17 96 -6 60 -12 -20 -25 -73 -36 -158 -16 -115 -19 -125 -31 -103 -7 13
-18 57 -24 97 -18 114 -3 221 55 412 16 49 15 55 -2 34z"/>
<path d="M7 823 c-11 -10 -8 -51 4 -58 16 -11 56 3 63 21 4 9 1 23 -5 30 -12
15 -51 19 -62 7z m56 -9 c10 -10 -12 -44 -28 -44 -18 0 -28 17 -21 35 5 15 37
20 49 9z"/>
<path d="M20 800 c0 -5 7 -10 15 -10 8 0 15 5 15 10 0 6 -7 10 -15 10 -8 0
-15 -4 -15 -10z"/>
<path d="M2 636 c2 -14 8 -29 13 -33 4 -4 5 -2 1 5 -11 19 4 14 56 -19 27 -17
52 -29 55 -25 10 10 -24 41 -78 70 l-50 28 3 -26z"/>
<path d="M12 561 c-21 -13 -10 -47 13 -43 31 6 42 22 15 22 -23 0 -23 0 -4 15
14 11 15 14 4 15 -8 0 -21 -4 -28 -9z"/>
</g>
</svg>
